<svg xmlns="http://www.w3.org/2000/svg" preserveAspectRatio="none" id="Layer_1" data-name="Layer 1" viewBox="0 0 1922.53 179.92"><defs><style>.cls-1{fill:#fff;fill-rule:evenodd;}</style></defs><title>bottom-sep2-white</title><path class="cls-1" d="M855.08,16.75c-1.28-1.38-6-1.74-6,1C850.64,19.39,853.75,18.18,855.08,16.75Z"/><path class="cls-1" d="M803.11,6.75c-.78.22-2,0-2,1C801.89,7.53,803.08,7.72,803.11,6.75Z"/><path class="cls-1" d="M783.12,4.75c.39,2.4-4.55-.55-3,3C782.65,8.81,785.82,5.65,783.12,4.75Z"/><path class="cls-1" d="M847.09,32.74c1.23-3.32-6.76-2.44-7-1C843.33,31.16,844.74,32.42,847.09,32.74Z"/><path class="cls-1" d="M811.11,28.74c-.78.23-2,0-2,1C809.88,29.52,811.08,29.71,811.11,28.74Z"/><path class="cls-1" d="M787.11,31.74c-.22-1.89,1.13-2.21,1-4-2.67,3.51-7.46-1.31-9,3C779.86,33,784.73,31.13,787.11,31.74Z"/><path class="cls-1" d="M759.13,5.75c-1.17.16-2.84-.17-3,1C757.31,6.6,759,6.92,759.13,5.75Z"/><path class="cls-1" d="M755.13,31.74c2,.3,2-1.35,3-2-.39,3.23,11.39,3.23,11,0-6.84,1.45-14.92-4.71-21-1C750,32.26,757.79,27.88,755.13,31.74Z"/><path class="cls-1" d="M765.13,8.75c-2.22-.43-5.42-2.3-6,1C760.89,9.17,765,11,765.13,8.75Z"/><path class="cls-1" d="M751.13,7.75c0-1.65,2.78-.56,3-2C752.09,4.89,748.62,7.32,751.13,7.75Z"/><path class="cls-1" d="M756.13,8.75c-7.48-1.2-3.22,3.06,0,0Z"/><path class="cls-1" d="M992,47.73c-2.22.78-5.41.58-6,3h6Z"/><path class="cls-1" d="M1175.92,48.73c-1.47-.52-2.51-1.48-4-2C1170.07,50.07,1175.52,50.94,1175.92,48.73Z"/><path class="cls-1" d="M1166.93,47.73c-3.62,4.72,5.85,1.33,0,0Z"/><path class="cls-1" d="M1165.93,66.72c4.6-2.38,3.07-6,4-10,2.57.09,1.43,3.9,4,4-.9-2.92-.9-3.07,0-6h-6c.53,6-1.47,4.28-6,4C1162.29,62.37,1167.86,60.8,1165.93,66.72Z"/><path class="cls-1" d="M1183.93,61.72c.2-3.27-4.69-3.94-4,0Z"/><path class="cls-1" d="M1009,53.73c-.89-.77-2.86.61-3,1C1004.6,58.5,1011,55.45,1009,53.73Z"/><path class="cls-1" d="M897.06,47.73c-1.28,0-1.38-1.28-3-1C892.51,49.19,897.46,49.67,897.06,47.73Z"/><path class="cls-1" d="M993,45.73c-.77.23-2,0-2,1C991.79,46.51,993,46.71,993,45.73Z"/><path class="cls-1" d="M968,45.73h-2v2h2Z"/><path class="cls-1" d="M989,44.73c-.78.23-2,0-2,1C987.79,45.51,989,45.71,989,44.73Z"/><path class="cls-1" d="M766.12,6.75c5.77.42,5.41.76,11,1C777.37,4.13,767.45,5.5,766.12,6.75Z"/><path class="cls-1" d="M553.23,51.73c-1.26-5.85-13-4.2-15-2C545.26,49.22,549.24,51.5,553.23,51.73Z"/><path class="cls-1" d="M652.18,46.73c2.56-1.08,4.77,3,6,0-2.3.31-1.11-2.89-3-3C657.33,47.36,648.4,44.75,652.18,46.73Z"/><path class="cls-1" d="M650.18,45.73c-2.27.73-7.79-1.8-7,2C645.8,47.34,648.67,47.22,650.18,45.73Z"/><path class="cls-1" d="M647.19,54.73c-.78.22-2,0-2,1C646,55.5,647.16,55.7,647.19,54.73Z"/><path class="cls-1" d="M550.23,56.73c-2.35,0-2.94-1.72-6-1,2.94,5-5.7,3.49-3,5,2.46-.13,4.81-.15,6,1C545.07,57.91,548.15,58.6,550.23,56.73Z"/><path class="cls-1" d="M656.18,49.73c-5.42-2-10.25.31-15-1C640.64,53.37,652.67,50.37,656.18,49.73Z"/><path class="cls-1" d="M535.24,39.74c-.78.22-2,0-2,1C534,40.51,535.21,40.71,535.24,39.74Z"/><path class="cls-1" d="M535.24,52.73h2c0-1,.81-1.19,1-2-2,.3-2-1.35-3-2Z"/><path class="cls-1" d="M660.18,63.72c-2.73,3,3-2.72,0,0Z"/><path class="cls-1" d="M536.24,58.73c.27-2.06,3.72-.95,4-3a6.5,6.5,0,0,0-5-1C535.41,56.22,534.88,58.42,536.24,58.73Z"/><path class="cls-1" d="M1343.84,22.74c-5.4,1-9-1.12-11,2C1336.56,24.12,1343.14,26.37,1343.84,22.74Z"/><path class="cls-1" d="M547.23,52.73c-3.79-2.77-4.39,3.66,0,0Z"/><path class="cls-1" d="M669.17,15.75c-.77.22-2,0-2,1C668,16.52,669.15,16.72,669.17,15.75Z"/><path class="cls-1" d="M733.14,5.75c-.77.22-2,0-2,1C731.92,6.53,733.12,6.73,733.14,5.75Z"/><path class="cls-1" d="M714.15,5.75c-1.17.16-2.84-.17-3,1C712.33,6.6,714,6.92,714.15,5.75Z"/><path class="cls-1" d="M747.13,28.74c-.77.23-2,0-2,1C745.91,29.52,747.11,29.71,747.13,28.74Z"/><path class="cls-1" d="M741.14,13.75c-.73-2.73,2-2,2-4h-4C739.28,11.61,739.8,13.09,741.14,13.75Z"/><path class="cls-1" d="M736.14,11.75c1.16,3.95,1.16-3.95,0,0Z"/><path class="cls-1" d="M733.14,10.75c-4.35.64-11.3-1.3-14,1C723.14,13.22,729.78,14.46,733.14,10.75Z"/><path class="cls-1" d="M666.18,51.73c-1.06,2.53,2.1,5.7,3,3C666.87,55,668.06,51.84,666.18,51.73Z"/><path class="cls-1" d="M711.15,11.75c-1.17.16-2.83-.17-3,1C709.33,12.59,711,12.92,711.15,11.75Z"/><path class="cls-1" d="M668.18,46.73c-1.18.16-2.84-.17-3,1C666.35,47.57,668,47.9,668.18,46.73Z"/><path class="cls-1" d="M706.16,12.75c-.78.22-2,0-2,1C704.93,13.52,706.13,13.72,706.16,12.75Z"/><path class="cls-1" d="M1775.63,23.74c-.77.23-2,0-2,1C1774.41,24.52,1775.61,24.72,1775.63,23.74Z"/><path class="cls-1" d="M1840.05,48l.92.54Z"/><path class="cls-1" d="M1840.05,48l-.61-.35.16.09Z"/><path class="cls-1" d="M1880.58,35.74a1,1,0,0,0-2,0C1879.71,35.64,1880.14,37.19,1880.58,35.74Z"/><path class="cls-1" d="M1896.57,48.73c1.16,4,1.16-3.95,0,0Z"/><path class="cls-1" d="M1922.53,66.7V51.32a6.64,6.64,0,0,1-1-.59c0,9.62-8.56,1.44-12,0-.27,3.79-4.21,3.2-7,2,1.31,2.9.82,5.75-2,7-1.77-3.56-6.53-4.14-9-7-1.3,2.48,2.93,4.15,0,5-1.84-3.54-2.49,0-5,1-4.65-2.35-7-7-10-11-.19,4.14-5.39,3.3-7,1-2,5.47,5.07,8.61,0,11-3.93-10.08-18.84-4.28-26-12-2.53,2.44,2.11,2.13,1,6-4.75,8.61-12.94-1.16-19-3-3,0-3.4,2.6-6,3-1.4-1.28-.44-4.9-3-5-1.57,4.54-4.26-.81-8,0-.1,3.1,3.14,2.85,2,7-2.83-.83-2.59,1.41-5,1-1.76-.91-1.65-3.68-4-4-1.66,2-2.68,4.64-6,5-1.13-.21-1.56-1.11-2-2-.19-2.83,3.75-2.33,1-5-4.2-1.54-.16,5.17-3,5-7.5-.25-9-8.64-16-11,.69.24-4.25,2.07-5,2-3.58-.32-4.26-2.76-7-5-2.67.75-9.69,1.47-10-3-5.7,6.52-14.15,5.32-21,5-.47,6.62-7.38,3.39-8,8,3.15-.32,13.32-2.24,17,4,.55-1.46-1.17-5.17,1-5,4.66,2.15,11.86,2.1,15,8-4.46,7.47-14.47,6.57-23,8-.11-2.54-1.45-3.87-4-4-.55,1.46,1.16,5.17-1,5-.18-1.49.35-3.69-1-4-.55,1.79-.52,4.15-2,5-1.41-1.37-8.52-8.08-9-1-.3,3.13,2.89-2.54,3,1-.52,6.55-6,1.82-9,0-1-5.67.94-8.38,3-11a21.56,21.56,0,0,0-9-1c-1.67-4.67-7.44-5.22-7-12-5.07-.4-7,2.38-10,4a7.21,7.21,0,0,0-2-3c-3.16,6.87-16,4.14-19,6-.59-3.19,1.87-3.09,0-5-8.74-1.89-15.63-.18-24,2-1.14-2.2-3.34-3.32-4-6-7.7-1.36-8,4.64-13,6-1.82-3.41.13-4.8,0-9-5.52-1.19-5.48,3.18-11,2-.2-3.79-4.54-3.45-7-5-4.73,2.35-8,2.73-13,3a22.51,22.51,0,0,0,2-6h-6c-1.18,1.49-1.25,4.08-3,5-3.88-3.39-6,1.36-9,2-2-2,.44-2,1-4-6.1-.35-6.25,2.48-4,6-2.15-2.16-12.25,2.87-14-2,1.25-2.42,5-2.29,5-6-4.16,2.25-14.55.61-21,1,.3-2-1.35-2-2-3-37.25,1.16-71.23,4-101-3,3.92.26,6.35-1,8-3,14.87,3,27.73,7.38,40-1-24.13-1.66-48.68.24-72-2-.68,4.35,5.72,1.61,7,4-5.81-.8-9.37.63-12,3,.44-3.77-4.56-2.11-6-4,.09-1.58,2.55-.78,2-3-12.89,2.24-25.26-4.17-32,4a5.63,5.63,0,0,0-1-4c-14.08,1.56-26.66-3.14-33,1,9.12,1,20-.79,31,2-1.23,1.44-3.44,1.9-6,2,3.18,8.61,9.81-4.23,15,0,4.66-2.71,20.31-4.53,23,0-5.1-.68-7.45,2.74-10,7-13.49-6.45-23.1,6.59-34,2-.48-.21,1.75-2.26,0-2-1,1.33-.94,3.72-3,4-17.55-.23-27.66,2-47,1-.11,1.22-.3,2.36-2,2-27.46-2-46.79.16-77,2-1.5-1.16-2.45-2.88-5-3a106.8,106.8,0,0,0-11,3c2.34.32,3.75,1.58,7,1,.78,2.23,2.1,3.9,2,7a210.71,210.71,0,0,1-34,5c-1.18,4.28.07,4.07,1,8-4-1-4.44,1.56-6,3-3.11-1.09-4.66-3.73-8-2,.92-4.58-2.11-5.22-6-5-.58,6.11-14,14.3-16,4-4.78,7.26-14.45-1.76-21,7-.61-1.39-3.84-.15-4-2-1.31-4.31,4.76-1.24,4-5-3.69.64-8.19.47-9,4a27.62,27.62,0,0,1-13-6c-.16-2.48.51-4.15,2-5,2.87.79,4.57,2.75,7,4v-5a25.78,25.78,0,0,1,16,1c.11,2.56.57,4.76,2,6,.43-2.6-.13-7.68,2-11-3.82-2.17-3.13.92-5,3-4.67-3.3-10.46-6.26-15-7,.29,5.43-2.08,3-5,6a18.1,18.1,0,0,1-6-5c.8,3.8-4.73,1.27-7,2,1.82-5.48-4.81-2.52-3-8,2.65,0,5.89.56,6-2-.78-.22-1.16-.83-1-2-9.37.15-28.76,5.17-38-4-3.9.86-9.31,1.76-13,0-1.35,2.84-6.79,6-13,3-9.3,3.94-22.21,4.18-36,5,.22,1.89-1.13,2.21-1,4,4,1.38,3.16-2.17,6-2,1.15,5.15-2.09,5.92-3,9,.38,5.28,11.19.13,11,6-7.83.83-14.75,3.32-20-2,4.38-.51,1.27-13.2-1-15-1.14,3.2-1,7.63-7,6,.06,3.4.31,7-2,8,.17-2.51-1.53-3.13-3-4-1.79,1.88-2.71,4.62-5,6-2.58-4.75-7.06-7.59-11-11a47.11,47.11,0,0,1-5,5c-2,0-1.27-2.73-4-2,.3,4.08-2.09.53-4,1-.77,2.22-.58,5.42-3,6-3.59-5.39-8.47,1.39-15-2,2.81,15.53-11,4.7-5-7-3.36-1.64-5.69-4.31-10-5-1.16,5.66-5.88,6.69-12,5-1.36,3-5.43,3.23-6,7,4.58,1.41,8.83,3.15,11,7-13.55,12.4-23.41-18.17-33-7,1-4.7-4.67-2.67-4-7a5.58,5.58,0,0,0,4-1c-8.82-11.74-22.7-2-33-2-6.14,0-9-3.28-12-4-4.88-1.17-10.67,3.87-17,3-7.86-4.7-23.85,4.38-31-4,.4-2.6,3-3,3-6-3,3.33-10.26,2.39-13,6a14.12,14.12,0,0,0-6-7c-.22.77,0,2-1,2-33-2.37-65.39-1.48-105,4-.53,3.25,1.47,3.78-3,6,1.8-.13,2.34,1,2,3a64.21,64.21,0,0,0,13-4c-1.76-1.25-6,1-8-2,8.67.92,17.53-4.91,23,1-7.1,0-3.46,4.92-11,4-1.4,3.1,1.88,2.63-1,6,3.34-1.57,8.45-1,11,1-3.31,1.61-1.66,4.12,1,5-4.39,4.86-12.18,1.62-17,7-2.31.31-1.11-2.89-3-3-3,6.83-10.75,2-15,1-8.56-2-26.71,2.85-30-3a24.35,24.35,0,0,1,4-4c-4-1.06-1.05-5.25,1-6-3.51-.79-1.15-3.5,0-5-12-9.41-22.1,0-42-2-.06-1.28-1.28-1.38-1-3-3,2-7.59,2.41-13,2-.64,5.69-7.87,4.79-14,5,.26-3.3-2.44-5.11-8-5,.76,3.42-4.05,1.27-3,5,4.8.52,7.79,2.87,12,4,.12-4.16,4.94-2.51,7-1-1.5.17-3.69-.36-4,1,.74,1.59,4.89-.23,4,3-3.05-2.33-7,1.1-10,2,6.31.71,7.5,4.33,12,0a4.64,4.64,0,0,0,1,3c8,.4,4-1.82,10-4,1.77,3.56,5.68,5,9,7-11.52-1.72-18.13,3-27,1-21.75,6-63.43-4.86-78,14-4.64-5.75-15.78,0-22-7,1.08-2.92,8.92.92,10-2-6-2.41-13.94,1.2-16,6-3.45-1.7-8.27.94-11-3,1.33-1,3.72-1,4-3-2.93.9-3.08.9-6,0,.76,2.55,1.47,4.59-1,6-6.44-1.94-14.91,6.47-21,0-11.35,1.2-23.85,5.51-36,2,1.46-1.87,5.48-1.18,5-5-6.68-8.48-15.21,10.24-23,1-.24,3.41-5.29,2-6,5,2.19,2.24,9.37-2.83,12,0-4.37,4.35-14.5,3.85-18,2,1.29-3.83,5.47-2.56,3-8a6.5,6.5,0,0,1,5,1c1-3.63-4.49-.84-4-4,2.29-2.56,6.24.35,6-3-.3-2.7-4.21-1.79-5-4-.61-4,6.94-5,6-6-6.73.71-12.93-4.38-18-2a85.45,85.45,0,0,0,11,4c-5.79,3.92-12.68.61-15,8,2.91,1.08,3.76.24,8,0,.56,3.44,2.92,5.08,5,7-8.83,4.07-13.28-2-21-4-.9,3.1-1.74,6.25-4,8-4.15.15-6-2-8-4,2.86-5.16,5,.64,10-3-1.41-3.65.56-4.49-2-7-5.11,2.64-11.91-1.12-12,4-3.46-.69-5.95-.18-8-4-3.14,1.55-5.57.64-8-1-.47,3.14,2.69,2.64,3,5-3.31,2.58-8.76.62-9-3-2.45,1.33,1.1,3.72-1,4-1.56-1.44-2-4-6-3,1.69,3.72-.21,2-2,4,2.19,1.15,6.47.2,7,3-3.94,1.13-6.94-3-8,1,1.74.91,5,.34,6,2-7,3.15-13.9,7-23,3-3.65,7.81-10.85.43-16,6-2.2-3.8-10.46-1.53-11-7-3.24-1.24-.77,3.23-4,2-3.57-4.29,2.11-6,3-9,.31-2.65-5.6.94-4-3,3.74.63,5.72,1.57,7-2-2.73-.73-2,2-4,2-.23-5.23-3-1-6-1,.13-2.5,1.91-3.13-1-4-.55,1.46,1.17,5.17-1,5-2.7-1.48-6.78,1.46-8-3-3,.62-2.85,4.49-8,3,.8,3.47-1.49,3.84-1,7,2.79,1.54,7.75.91,8,5-8.3-2.76-16.18,4.25-22-1a118.64,118.64,0,0,0,4-12c-3.9,2.76-4.7,8.62-9,11a2.76,2.76,0,0,1,3,2c-8.5-.42-15.62,6.28-23,5s-7.52-13.1-16-10c-2.36-6.71-10.78.24-15,1,1.58.09,3.47-.14,3,2-2.14,3.52-9.35,2-10,7a31.68,31.68,0,0,1,14,0c-10.1,2.16-12,5.19-23,3-.22-1.89,1.13-2.2,1-4-2.7-2.3-11,1-12-3,.78-.21,1.16-.83,1-2,6.76-.52,7.82-.5,11,1,2-1.3,1.37-5.28,4-6,.72,2,3.13,4,1,6,3.94.61,4.42-2.23,5-5-3.16-.18-3.38-3.29-3-7,12.59.16,31.45-5.52,41,0,1.63-5,11.83-1.49,15-5-18.33,1.22-35.48-.4-56,1-5.63.39-13.1,4.54-15-1,2.66,0,5.89.56,6-2-6.67-.9-12.7-2.1-12,4-2.47.13-4.82.15-6-1,.48,3.48-2.51,3.49-4,5,7.34,1.07,21.65.85,30,0-1.74,6.63-10.68,2-14,6,4.21,1.27,8.36-2.61,9,1-.21,1.12-1.11,1.55-2,2a21.45,21.45,0,0,0-9-1c.3-.62,2.49-3.85,0-4-11.24,1.73-21.3.53-34,2v-3c-3.42,2.53-7.34-.23-11,3-1.63-5.41-10.18-3.26-8-10-4.13-.18-3,3.38-4,4-7.26-.51-12-3.14-21-4,.1-3.1-1.22-4.77-2-7-5,1.79-8.63.12-9-4-7.24,3.14-17.28,5.61-23-1,1.18-.16,2.84.17,3-1-9.62-1.29-13.88,2.78-19,6A11.82,11.82,0,0,0,0,56.89v18c3.18-.76,5.88-.39,7.49,3.8C4,79.74,2.08,79,0,79.5V95.65l.5.06c6.22-5.92,16.58-4.13,26-1-2.79,2.54-1.66,9-5,11-3.19.85-3.79-.87-5-2-.08,3-5,1.09-5.09,4.12h-3a8.87,8.87,0,0,1,.06-1.12h-6c.22-1.89-1.13-2.2-1-4,6.44-3.68,15.86,3.08,21-6-7.55.11-16.08-.76-21,2-.16-1.18.17-2.84-1-3l-.5.21v84H1922.53v-72.1H1919a27.19,27.19,0,0,0,1.57-4.12c.32-1.35,1.43-1.9,1-4h-4a4.27,4.27,0,0,0,.63,3.34c-.32.08-.58,0-.69-.33a5.52,5.52,0,0,0-2.1-2.48c2.11-1.45,3.28-3.4,2.16-5.53-.43,2.94-5.55,6.37-8,4-2-4.7,6.62-4,3-7-.28.91-4.43,2.66-4,1a14.19,14.19,0,0,1,6-5,18.5,18.5,0,0,1,8,5v-5c-4.2-.52-7.22-6.24-11-4-.9-2.1-1.56-4.44-3-6-4.73,3.12-3.25-2.55-7-3,.28,2.61-.36,4.3-3,4-2-4.34-8-4.68-9-10,5.59-.92,5.23,4.1,11,3-2.82-9.59,12.1-10.68,18-5C1920.32,64.25,1920.22,65.25,1922.53,66.7Zm-15,36a14.45,14.45,0,0,0,1.92-.18l-1.25,4.45A5.7,5.7,0,0,1,1907.57,102.7Z"/><path class="cls-1" d="M1838.84,47.29l.25.14Z"/><path class="cls-1" d="M1481.78,9.75c-2.72.62-7.94-1.27-9,1C1475.49,10.13,1480.71,12,1481.78,9.75Z"/><path class="cls-1" d="M1496.77,16.75c-2.42,3.35,3.35-2.42,0,0Z"/><path class="cls-1" d="M1541.75.76c-2.73,3,3-2.73,0,0Z"/><path class="cls-1" d="M1509.76,16.75c8.86-1.13,22.59-6.56,26-12-8.27,2.66-19.42,11.07-28,7-.73,3.63-5.4,3.92-8,3C1501.62,18.24,1506.6,17.15,1509.76,16.75Z"/><path class="cls-1" d="M1785.63,34.74c2.93,0,14-2.06,14,4-.09,2.56-3.9,1.43-4,4a2.72,2.72,0,0,1,2,3c3.08-5.54,14.37-3,22-2,3.49-5.73,3.75-14,0-18-.18,1.5.35,3.69-1,4-2.82-1.18-3-5-4-8-5.39,4.17-11.35,1.71-18,4,0-6.56-5-2.07-10-3,.12,5.21,8.09,2.58,7,9C1790.06,31.84,1786.76,32.21,1785.63,34.74Z"/><path class="cls-1" d="M1584.73,25.74c3.54.21,2-4.69,6-4,1,1.33,2.71,2,3,4,4.3-.82,5.93-.61,12-1-.3-5.9-10.62.51-9-9-5.26-1.4-7,4.31-11,1,.65,6.68-4,4.85-7,6C1579.51,26.36,1587,21.36,1584.73,25.74Z"/><path class="cls-1" d="M1545.75,29.74c1.16,3.95,1.16-3.95,0,0Z"/><path class="cls-1" d="M1464.79,19.75c-.59-6.26-11.48.48-10,2C1458,18.73,1460.43,21.21,1464.79,19.75Z"/><path class="cls-1" d="M1469.78,15.75c-.77.22-2,0-2,1C1468.56,16.52,1469.76,16.72,1469.78,15.75Z"/><path class="cls-1" d="M1439.8,6.75a9.92,9.92,0,0,1-10,2c.75,3.42-4.06,1.27-3,5C1432.84,13.76,1439.83,9.48,1439.8,6.75Z"/><path class="cls-1" d="M1492.77,17.75c-2.65,0-5.88-.56-6,2C1488.53,18.83,1491.76,19.4,1492.77,17.75Z"/><path class="cls-1" d="M1558.74,6.75c-.77.22-2,0-2,1C1557.52,7.53,1558.71,7.72,1558.74,6.75Z"/><path class="cls-1" d="M552.23,56.73c-.8,6.05,4.58.66,0,0Z"/><path class="cls-1" d="M1752.64,28.74c1-2,3.84-2.16,7-2,.17-2.5-1.53-3.13-3-4C1758.7,27.53,1748.73,25.4,1752.64,28.74Z"/><path class="cls-1" d="M1780.63,27.74c-1-4.29,4.91-1.75,5-5-3.16-.48-3.53,1.8-7,1C1778.36,26,1778.88,27.5,1780.63,27.74Z"/><path class="cls-1" d="M1756.64,20.75c2.27-2.16,6.82-3.37,10-7-5.57-4.38-10,2-15,2-.12,0-4.09-3-4-3-7.49-1.86-17.56,2.35-25,4-.21.05-6.43-3.07-5,2C1727.67,21.62,1748.34,17.48,1756.64,20.75Z"/><path class="cls-1" d="M1790.62,41.73h-6C1784.39,45.53,1790.86,45.53,1790.62,41.73Z"/><path class="cls-1" d="M1627.71,40.74c4.07-1.83,5.47-1,9-4C1634.86,35.87,1627.89,36.79,1627.71,40.74Z"/><path class="cls-1" d="M1645.7,37.74c.07-3.2-6.28-2.6-7-2C1639.43,39.34,1641.82,36.39,1645.7,37.74Z"/><path class="cls-1" d="M1660.69,21.75c-2.61.28-4.3-.37-4-3-6-1-8.52,1.47-11,4C1647.63,22.88,1657.48,23.53,1660.69,21.75Z"/><path class="cls-1" d="M1703.67,20.75a1,1,0,0,0-2,0C1702.79,20.64,1703.23,22.2,1703.67,20.75Z"/><path class="cls-1" d="M1720.66,37.74c-1.28-.06-1.38-1.29-3-1C1716.11,39.2,1721.05,39.68,1720.66,37.74Z"/><path class="cls-1" d="M1607.72,16.75c-.16-1.18.17-2.84-1-3-.08,1.57-2.54.78-2,3Z"/><path class="cls-1" d="M31.49,46.73c-.54-1.44,3.89-2.44,1-3C32.6,44.76,28.17,45.76,31.49,46.73Z"/><path class="cls-1" d="M205.4,71.72c1.57-.1,3.47.13,3-2h-2C206.4,70.72,205.59,70.91,205.4,71.72Z"/><path class="cls-1" d="M58.47,52.73c3.37,3,3-3.7,0,0Z"/><path class="cls-1" d="M529.24,60.72c-2.08-1.63-8.44-4.15-11-2C522.09,60.63,525,62.53,529.24,60.72Z"/><path class="cls-1" d="M41.48,45.73c-2.49.16-3.09-1.57-5-2C35.29,46.71,40.69,48,41.48,45.73Z"/><path class="cls-1" d="M203.4,73.72c-3.37-3-3,3.69,0,0Z"/><path class="cls-1" d="M357.33,72.72c2.48,3.9,1.45-3.31,0,0Z"/><path class="cls-1" d="M188.41,71.72c-1.06,6.22,9,6.37,9,1C195.09,71.68,189.73,70.69,188.41,71.72Z"/><path class="cls-1" d="M170.42,71.72v-2h-2v2Z"/><path class="cls-1" d="M196.41,78.72c-2.73,3,3-2.73,0,0Z"/><path class="cls-1" d="M187.41,75.72v-2h-2v2Z"/><path class="cls-1" d="M143.43,82.71c.77-.22,2,0,2-1C144.65,81.94,143.46,81.74,143.43,82.71Z"/><path class="cls-1" d="M128.44,57.73c-3,.31-7.78-1.11-8,2C123,58.9,129.05,61.67,128.44,57.73Z"/><path class="cls-1" d="M163.42,55.73c-1.18.15-2.84-.17-3,1C161.6,56.57,163.26,56.9,163.42,55.73Z"/><path class="cls-1" d="M148.43,62.72c-.78.23-2,0-2,1C147.21,63.5,148.4,63.7,148.43,62.72Z"/><path class="cls-1" d="M170.42,54.73c-.78.22-2,0-2,1C169.2,55.5,170.39,55.7,170.42,54.73Z"/><path class="cls-1" d="M181.41,60.72c4.07,5.08,6.45-4.33,0,0Z"/><path class="cls-1" d="M76.46,47.73a4.1,4.1,0,0,0-4,1C71.08,50.48,78.38,48.37,76.46,47.73Z"/><path class="cls-1" d="M87.46,62.72c1.15,4,1.15-3.94,0,0Z"/><path class="cls-1" d="M83.46,61.72c-5.58.66-2-3.73,0-4-4.64-3.41-7.35,2.23-9,5C77.18,60.9,84.29,64.15,83.46,61.72Z"/><path class="cls-1" d="M116.44,66.72c-1.77.23-5-1-4,2C114.72,69,116.2,68.48,116.44,66.72Z"/><path class="cls-1" d="M105.45,73.72h7C112.68,69.51,106.27,72.67,105.45,73.72Z"/><path class="cls-1" d="M26.49,46.73c1.46,3.31,2.49-3.9,0,0Z"/><path class="cls-1" d="M1916.18,71.29c-.09.21-.46,1.08-.77,1.79l.16-.36C1915.94,71.84,1916.12,71.42,1916.18,71.29Z"/><path class="cls-1" d="M1910.57,70.72c1.91-.42,4.3-.36,4-3C1912,67.44,1910.27,68.09,1910.57,70.72Z"/><path class="cls-1" d="M1915.41,73.08c-.09.22-.18.41-.25.58C1915.23,73.51,1915.31,73.32,1915.41,73.08Z"/><path class="cls-1" d="M1915,74c-.07.15-.07.18,0,0Z"/><path class="cls-1" d="M681.17,64.72c.77-.22,2,0,2-1C682.39,64,681.2,63.75,681.17,64.72Z"/><path class="cls-1" d="M689.16,61.72c-.77.23-2,0-2,1C687.94,62.5,689.14,62.7,689.16,61.72Z"/><path class="cls-1" d="M680.17,55.73c3.38-1.16,4.26.7,6-1C684.5,54.85,679.81,51.49,680.17,55.73Z"/><path class="cls-1" d="M677.17,55.73c.78-.23,2,0,2-1C678.39,55,677.2,54.76,677.17,55.73Z"/><path class="cls-1" d="M686.17,58.73c-2.42,3.35,3.35-2.42,0,0Z"/><path class="cls-1" d="M675.17,60.72c1.77-.22,5,1,4-2C677.31,58.86,675.83,59.38,675.17,60.72Z"/><path class="cls-1" d="M1360.84,34.74a1,1,0,0,0-2,0C1360,34.64,1360.39,36.19,1360.84,34.74Z"/><path class="cls-1" d="M690.16,56.73c1.16,4,1.16-3.95,0,0Z"/><path class="cls-1" d="M672.17,62.72c1.36.32,1.91,1.43,4,1C677.77,60.94,671.86,61,672.17,62.72Z"/><path class="cls-1" d="M673.17,54.73c.61.05,1.18.15,1,1h2C677.73,53.27,672.77,52.79,673.17,54.73Z"/><path class="cls-1" d="M679.17,48.73c.42,1.91.36,4.3,3,4C682.34,50.23,680.63,49.6,679.17,48.73Z"/><path class="cls-1" d="M83.46,41.73c-1.28,0-1.38-1.28-3-1C78.91,43.2,83.85,43.68,83.46,41.73Z"/><path class="cls-1" d="M209.4,53.73c-.85-.85-2.85.72-3,1C205.46,56.49,210.09,54.42,209.4,53.73Z"/><path class="cls-1" d="M386.31,66.72a1,1,0,0,0-2,0C385.43,66.62,385.87,68.18,386.31,66.72Z"/><path class="cls-1" d="M389.31,62.72c1.16,4,1.16-3.94,0,0Z"/><path class="cls-1" d="M389.31,46.73c-.78.23-2,0-2,1C388.09,47.51,389.29,47.7,389.31,46.73Z"/><path class="cls-1" d="M377.31,46.73c-1.44.55-5.16-1.17-5,1C373.81,49.32,376.41,48.47,377.31,46.73Z"/><path class="cls-1" d="M348.33,47.73c-.77.23-2,0-2,1C347.1,48.51,348.3,48.7,348.33,47.73Z"/><path class="cls-1" d="M316.34,56.73c-2.27-.28-3.75.24-4,2C314.63,59,316.11,58.49,316.34,56.73Z"/><path class="cls-1" d="M329.34,59.73c-1.62-2-7.38,0-9-2v3c1,0,1.19.82,2,1C322.85,57,328.05,62.77,329.34,59.73Z"/><path class="cls-1" d="M391.31,57.73a1,1,0,0,0-2,0C390.43,57.62,390.86,59.18,391.31,57.73Z"/><path class="cls-1" d="M342.33,64.72c.78-.22,2,0,2-1C343.56,64,342.36,63.75,342.33,64.72Z"/><path class="cls-1" d="M338.33,63.72c-1.83-8.22,5.4-1.21,7-6-4.14.46-12.49-3.19-14,3C335.69,59.71,335.93,62.79,338.33,63.72Z"/><path class="cls-1" d="M381.31,67.72a1,1,0,0,0-2,0C380.44,67.62,380.87,69.18,381.31,67.72Z"/><path class="cls-1" d="M432.32,73.54c0-.19.05-.35.06-.46C432.36,73.21,432.34,73.36,432.32,73.54Z"/><path class="cls-1" d="M443.28,73.72c-.84,5.91.58-4,0,0Z"/><path class="cls-1" d="M432.38,73.08c0-.13,0-.24,0-.29S432.4,72.93,432.38,73.08Z"/><path class="cls-1" d="M466.27,72.72c-1.28-.06-1.38-1.28-3-1C461.72,74.18,466.67,74.66,466.27,72.72Z"/><path class="cls-1" d="M456.28,62.72c-4.08-2.3-11.86-3-14,1C447.46,63.66,455.33,64.06,456.28,62.72Z"/><path class="cls-1" d="M432.29,73.72c0,.15,0,.28-.06.41l.09-.59Z"/><path class="cls-1" d="M432,75.47c0,.26,0,.21,0,0Z"/><path class="cls-1" d="M422.29,66.72c-.77.23-2,0-2,1C421.07,67.5,422.27,67.69,422.29,66.72Z"/><path class="cls-1" d="M397.31,45.73c-.78.23-2,0-2,1C396.08,46.51,397.28,46.71,397.31,45.73Z"/><path class="cls-1" d="M432.12,74.9c0-.23.07-.5.11-.77C432.19,74.44,432.15,74.7,432.12,74.9Z"/><path class="cls-1" d="M299.35,60.72c2.49,3.9,1.46-3.31,0,0Z"/><path class="cls-1" d="M218.4,78.72c3.24-.09,6.14-.52,8-2C222.65,76,220,75.31,218.4,78.72Z"/><path class="cls-1" d="M224.39,64.72a1,1,0,0,0-2,0C223.51,64.62,224,66.18,224.39,64.72Z"/><path class="cls-1" d="M242.38,57.73c-3.41-1.54-12.47-4.1-14,1C234.52,60,238.41,58.66,242.38,57.73Z"/><path class="cls-1" d="M206.4,64.72c2,1.71,8.1,1.46,9-1C212,65.41,209.37,62.16,206.4,64.72Z"/><path class="cls-1" d="M239.38,63.72v3c3.77.43,4.55-2.11,6-4-6.42-.26-16.61-3-19,3C231.92,64.21,235.45,66.84,239.38,63.72Z"/><path class="cls-1" d="M191.4,54.73Z"/><path class="cls-1" d="M212.4,57.73c-9.58,1.45-17.56-1.61-24,3C197.65,57.88,206.5,65.19,212.4,57.73Z"/><path class="cls-1" d="M249.38,61.72c-.77.23-2,0-2,1C248.15,62.5,249.35,62.7,249.38,61.72Z"/><path class="cls-1" d="M213.4,70.72c-.78.23-2,0-2,1C212.17,71.49,213.37,71.69,213.4,70.72Z"/><path class="cls-1" d="M190.41,35.74c-1.46.54-5.17-1.17-5,1C186.86,36.19,190.58,37.9,190.41,35.74Z"/><path class="cls-1" d="M297.35,69.72v-3c-1.17.16-2.83-.17-3,1C295.78,68,296,69.37,297.35,69.72Z"/><path class="cls-1" d="M275.37,67.72c-1.33,0-.92-1.75-2-2C270.93,66.88,274.48,70.43,275.37,67.72Z"/><path class="cls-1" d="M290.36,66.72c-2.77-2.66-9.73-1.34-14,0C279.47,69.56,288.35,68.91,290.36,66.72Z"/><path class="cls-1" d="M277.37,58.73c-.78.22-2,0-2,1C276.14,59.5,277.34,59.7,277.37,58.73Z"/><path class="cls-1" d="M293.36,56.73c1.15,4,1.15-3.95,0,0Z"/><path class="cls-1" d="M275.37,81.71c.85-3.18-.88-3.79-2-5-.4-1.72,1.48-2.57,0-3-1.07.93-.31,3.69-3,3C270.2,80.22,273.89,79.86,275.37,81.71Z"/><path class="cls-1" d="M289.36,60.72c-1.18.16-2.84-.17-3,1C287.54,61.57,289.2,61.9,289.36,60.72Z"/><path class="cls-1" d="M282.36,62.72c1.57-1.48,1.11-4.46-2-4C280.08,61,280.6,62.49,282.36,62.72Z"/><path class="cls-1" d="M286.36,74.72v2c1.77-.23,5,1,4-2Z"/><path class="cls-1" d="M291.36,48.73c-.78.23-2,0-2,1C290.13,49.51,291.33,49.7,291.36,48.73Z"/><path class="cls-1" d="M264.37,68.72c-1.72,1.61-6.18.49-7,3C260.3,72.69,266.28,68.15,264.37,68.72Z"/></svg>